Patient4_TMGait_0pt7_01_right_10_GRF.mot
version=1
nRows=65
nColumns=19
inDegrees=no
endheader
time	F1x	F1y	F1z	M1x	M1y	M1z	F2x	F2y	F2z	M2x	M2y	M2z	EC1x	EC1y	EC1z	EC2x	EC2y	EC2z
10.91	-40.3462	728.2675	65.2709	-257.9594	-76.9013	745.0512	2.9603	-10.0308	3.5867	-3.1705	-3.4067	-13.0706	-0.0592	0.0182	-0.0073	-0.0462	0.0165	0.9585
10.9216	-28.414	731.6854	64.8821	-257.5621	-73.9388	750.6845	1.9292	-5.7545	2.5269	-1.7859	-2.292	-7.5793	-0.0592	0.0182	-0.0073	-0.0462	0.0165	0.9585
10.9331	-17.8788	734.9076	64.305	-257.2891	-70.8897	754.5792	1.0317	-2.1461	1.5681	-0.59231	-1.3052	-2.914	-0.0592	0.0182	-0.0073	-0.0462	0.0165	0.9585
10.9447	-9.2293	737.6447	63.583	-257.1391	-67.8852	756.2921	0.31054	0.61847	0.80202	0.33881	-0.52131	0.69137	-0.0592	0.0182	-0.0073	-0.0462	0.0165	0.9585
10.9563	-2.4273	739.6173	62.6924	-257.0402	-64.9154	755.6884	-0.19351	2.5307	0.24167	0.99768	0.049303	3.1976	-0.0592	0.0182	-0.0073	-0.0462	0.0165	0.9585
10.9679	2.8018	740.5484	61.6668	-256.8699	-61.9899	752.7461	-0.54091	3.7258	-0.13381	1.4203	0.44136	4.7779	-0.0592	0.0182	-0.0073	-0.0462	0.0165	0.9585
10.9794	6.8576	740.1727	60.5328	-256.4847	-59.0875	747.5267	-0.73298	4.34	-0.36388	1.6458	0.68705	5.5888	-0.0592	0.0182	-0.0073	-0.0462	0.0165	0.9585
10.991	10.1964	738.3437	59.3286	-255.7645	-56.1782	740.1951	-0.85629	4.5028	-0.49634	1.7094	0.84392	5.8111	-0.0592	0.0182	-0.0073	-0.0462	0.0165	0.9585
11.0026	13.1854	735.0431	58.1103	-254.6341	-53.2606	730.9962	-0.91692	4.2772	-0.56835	1.6273	0.94462	5.5229	-0.0592	0.0182	-0.0073	-0.0462	0.0165	0.9585
11.0141	16.1972	730.4763	56.9246	-253.1051	-50.3223	720.3454	-0.97328	3.6908	-0.61377	1.4001	1.0297	4.7972	-0.0592	0.0182	-0.0073	-0.0462	0.0165	0.9585
11.0257	19.5065	725.1333	55.8717	-251.2992	-47.4137	708.8656	-1.0133	2.6705	-0.6538	1.0005	1.112	3.5459	-0.0592	0.0182	-0.0073	-0.0462	0.0165	0.9585
11.0373	23.3209	719.7346	55.0482	-249.4308	-44.5813	697.3252	-1.0561	1.1786	-0.70049	0.40696	1.2022	1.7467	-0.0592	0.0182	-0.0073	-0.0462	0.0165	0.9585
11.0489	27.7616	715.2567	54.5948	-247.8034	-41.9197	686.7187	-1.0523	-0.87232	-0.742	-0.41074	1.2682	-0.70824	-0.0592	0.0182	-0.0073	-0.0462	0.0165	0.9585
11.0604	32.85	712.7359	54.6307	-246.7518	-39.5244	678.0343	-0.98096	-3.4489	-0.75778	-1.4448	1.2734	-3.7691	-0.0592	0.0182	-0.0073	-0.0462	0.0165	0.9585
11.072	38.4824	713.0801	55.2832	-246.5723	-37.5296	672.1408	-0.75606	-6.42	-0.69209	-2.6382	1.1171	-7.3037	-0.0592	0.0182	-0.0073	-0.0462	0.0165	0.9585
11.0836	44.5025	716.8014	56.6317	-247.4323	-36.0437	669.5379	-0.32391	-9.4071	-0.48277	-3.8334	0.6948	-10.8491	-0.0592	0.0182	-0.0073	-0.0462	0.0165	0.9585
11.0951	50.5905	723.7896	58.6936	-249.2921	-35.1684	670.1663	0.43157	-11.7079	-0.036331	-4.7349	-0.14745	-13.5911	-0.0592	0.0182	-0.0073	-0.0462	0.0165	0.9585
11.1067	56.3901	733.2954	61.3855	-251.901	-34.9445	673.3902	1.5708	-12.1516	0.73158	-4.8629	-1.538	-14.1274	-0.0592	0.0182	-0.0073	-0.0462	0.0165	0.9585
11.1183	61.4944	744.0188	64.5301	-254.8258	-35.3567	678.1185	3.1661	-9.0631	1.9069	-3.5295	-3.5969	-10.4786	-0.0592	0.0182	-0.0073	-0.0462	0.0165	0.9585
11.1299	65.4993	754.2901	67.8514	-257.5147	-36.3098	682.9383	5.1742	-0.17677	3.5328	0.17807	-6.3467	0.062954	-0.0592	0.0182	-0.0073	-0.0462	0.0165	0.9585
11.1414	68.1014	762.2929	71.0052	-259.3672	-37.6232	686.3502	7.4483	17.14	5.5774	7.3207	-9.6672	20.6315	-0.0592	0.0182	-0.0073	-0.0462	0.0165	0.9585
11.153	69.1777	766.2335	73.6094	-259.7916	-39.0292	686.8383	9.6027	45.6263	7.8689	18.982	-13.176	54.5158	-0.0592	0.0182	-0.0073	-0.0462	0.0165	0.9585
11.1646	68.7547	764.4746	75.3096	-258.2535	-40.2314	682.985	10.9953	87.4017	10.0183	35.9828	-16.1134	104.2563	-0.0592	0.0182	-0.0073	-0.0462	0.0165	0.9585
11.1761	67.0901	755.5724	75.7683	-254.3021	-40.8698	673.4858	10.5654	142.9727	11.3353	58.467	-17.2035	170.4852	-0.0592	0.0182	-0.0073	-0.0462	0.0165	0.9585
11.1877	64.5574	738.3383	74.6901	-247.5953	-40.5753	657.1862	6.9288	209.8831	10.8644	85.3595	-14.7549	250.2866	-0.0592	0.0182	-0.0073	-0.0462	0.0165	0.9585
11.1993	61.5608	711.8952	71.8437	-237.9185	-39.0173	633.1429	-0.85728	281.5861	7.617	113.9387	-7.2643	335.8737	-0.0592	0.0182	-0.0073	-0.0462	0.0165	0.9585
11.2109	58.3856	675.7371	67.1833	-225.1804	-36.0646	600.7345	-11.57	348.5525	0.84386	140.3712	5.4819	415.742	-0.0592	0.0182	-0.0073	-0.0462	0.0165	0.9585
11.2224	55.0541	629.8179	60.9175	-209.4121	-31.8842	559.772	-22.7975	403.9439	-8.6235	161.9767	21.4587	481.4298	-0.0592	0.0182	-0.0073	-0.0462	0.0165	0.9585
11.234	51.3416	574.8043	53.5342	-190.827	-26.9489	510.8027	-32.8215	446.5638	-19.1661	178.3441	38.0566	531.2538	-0.0592	0.0182	-0.0073	-0.0462	0.0165	0.9585
11.2456	46.9914	512.1546	45.7	-169.8678	-21.8867	455.1062	-40.5381	478.8584	-29.4221	190.5466	53.2437	567.9572	-0.0592	0.0182	-0.0073	-0.0462	0.0165	0.9585
11.2571	41.7551	444.1858	38.0096	-147.2425	-17.254	394.7611	-45.5405	504.6657	-38.1098	200.2113	65.3925	596.1136	-0.0592	0.0182	-0.0073	-0.0462	0.0165	0.9585
11.2687	35.5184	373.815	30.913	-123.863	-13.4557	332.3559	-47.7555	527.3296	-44.5613	208.7324	73.7381	619.7427	-0.0592	0.0182	-0.0073	-0.0462	0.0165	0.9585
11.2803	28.3001	304.303	24.6429	-100.772	-10.675	270.7948	-47.5506	548.8277	-48.7341	216.9166	78.3996	641.2813	-0.0592	0.0182	-0.0073	-0.0462	0.0165	0.9585
11.2919	20.4254	238.9166	19.3355	-79.0338	-8.9274	212.9372	-45.4662	570.0699	-51.2002	225.0958	80.2685	661.9098	-0.0592	0.0182	-0.0073	-0.0462	0.0165	0.9585
11.3034	12.4834	180.4524	14.9848	-59.5795	-8.0175	161.241	-42.1483	591.4493	-52.7875	233.3596	80.5633	682.2645	-0.0592	0.0182	-0.0073	-0.0462	0.0165	0.9585
11.315	5.2419	130.7257	11.5693	-43.0257	-7.6738	117.2449	-38.2286	612.9647	-54.2736	241.6481	80.4377	702.5057	-0.0592	0.0182	-0.0073	-0.0462	0.0165	0.9585
11.3266	-0.68989	90.347	8.928	-29.5936	-7.5444	81.4754	-34.2802	634.3958	-56.2244	249.8226	80.7629	722.5312	-0.0592	0.0182	-0.0073	-0.0462	0.0165	0.9585
11.3381	-4.9289	58.9241	6.8516	-19.1702	-7.3118	53.5738	-30.7601	655.2568	-58.8025	257.6782	81.9141	741.8886	-0.0592	0.0182	-0.0073	-0.0462	0.0165	0.9585
11.3497	-7.3596	35.5365	5.1385	-11.4503	-6.7569	32.7523	-28.0027	675.0113	-61.8303	265.0149	83.8293	760.0293	-0.0592	0.0182	-0.0073	-0.0462	0.0165	0.9585
11.3613	-8.0367	18.9411	3.6598	-6.0156	-5.7892	17.9131	-26.0552	693.1919	-64.8814	271.6812	86.0662	776.424	-0.0592	0.0182	-0.0073	-0.0462	0.0165	0.9585
11.3729	-7.321	7.9389	2.3913	-2.447	-4.5136	8.0336	-24.8238	709.3794	-67.5297	277.552	88.1144	790.6014	-0.0592	0.0182	-0.0073	-0.0462	0.0165	0.9585
11.3844	-5.8623	1.3946	1.3678	-0.35244	-3.18	2.1076	-24.1038	723.1441	-69.5138	282.4888	89.6062	802.0546	-0.0592	0.0182	-0.0073	-0.0462	0.0165	0.9585
11.396	-4.2334	-1.817	0.64674	0.65172	-2.0312	-0.80957	-23.6959	734.0642	-70.8549	286.3339	90.4764	810.3175	-0.0592	0.0182	-0.0073	-0.0462	0.0165	0.9585
11.4076	-2.732	-2.7771	0.18215	0.92333	-1.1287	-1.6971	-23.4007	741.8741	-71.717	288.9903	90.8162	815.0845	-0.0592	0.0182	-0.0073	-0.0462	0.0165	0.9585
11.4191	-1.5357	-2.3893	-0.078929	0.76176	-0.49234	-1.3255	-23.078	746.785	-72.2489	290.5371	90.7286	816.5852	-0.0592	0.0182	-0.0073	-0.0462	0.0165	0.9585
11.4307	-0.64692	-1.3144	-0.1838	0.3844	-0.096002	-0.3237	-22.6078	749.2765	-72.5033	291.1728	90.2274	815.3203	-0.0592	0.0182	-0.0073	-0.0462	0.0165	0.9585
11.4423	-0.075577	-0.0096873	-0.20944	-0.058772	0.12215	0.91084	-21.9129	750.0188	-72.4494	291.1665	89.2614	812.0307	-0.0592	0.0182	-0.0073	-0.0462	0.0165	0.9585
11.4539	0.27482	1.2483	-0.16969	-0.47765	0.19938	2.1116	-20.8953	749.6582	-72.0536	290.7815	87.7744	807.4016	-0.0592	0.0182	-0.0073	-0.0462	0.0165	0.9585
11.4654	0.4279	2.3413	-0.11969	-0.83332	0.19988	3.1822	-19.551	748.766	-71.2897	290.248	85.7428	802.0615	-0.0592	0.0182	-0.0073	-0.0462	0.0165	0.9585
11.477	0.46689	3.1998	-0.049853	-1.1069	0.14107	4.0251	-17.8251	747.8016	-70.2137	289.7454	83.2211	796.493	-0.0592	0.0182	-0.0073	-0.0462	0.0165	0.9585
11.4886	0.41662	3.8565	0.01078	-1.3099	0.063637	4.6741	-15.7847	747.1107	-68.9237	289.401	80.3446	791.0699	-0.0592	0.0182	-0.0073	-0.0462	0.0165	0.9585
11.5001	0.33454	4.3007	0.073606	-1.4452	-0.026463	5.093	-13.4584	746.8801	-67.5363	289.2834	77.269	785.9663	-0.0592	0.0182	-0.0073	-0.0462	0.0165	0.9585
11.5117	0.21149	4.5619	0.13234	-1.5234	-0.12166	5.3352	-10.914	747.2617	-66.1769	289.441	74.1666	781.3561	-0.0592	0.0182	-0.0073	-0.0462	0.0165	0.9585
11.5233	0.08774	4.625	0.19342	-1.5429	-0.22012	5.3685	-8.1598	748.3098	-64.9401	289.8921	71.1542	777.2701	-0.0592	0.0182	-0.0073	-0.0462	0.0165	0.9585
11.5349	-0.067181	4.4678	0.25562	-1.495	-0.33322	5.1744	-5.2177	750.0613	-63.918	290.6389	68.3334	773.7475	-0.0592	0.0182	-0.0073	-0.0462	0.0165	0.9585
11.5464	-0.21653	4.0394	0.30648	-1.3595	-0.44644	4.6571	-2.0615	752.3983	-63.1635	291.6313	65.7526	770.6474	-0.0592	0.0182	-0.0073	-0.0462	0.0165	0.9585
11.558	-0.3808	3.2667	0.343	-1.1039	-0.5579	3.7304	1.2667	755.0806	-62.72	292.768	63.465	767.7474	-0.0592	0.0182	-0.0073	-0.0462	0.0165	0.9585
11.5696	-0.51628	2.0538	0.34813	-0.69051	-0.63545	2.2449	4.7745	757.7364	-62.5864	293.9004	61.4708	764.6946	-0.0592	0.0182	-0.0073	-0.0462	0.0165	0.9585
11.5811	-0.60945	0.3186	0.32243	-0.088487	-0.66826	0.12115	8.39	759.9214	-62.7194	294.8484	59.7485	761.1228	-0.0592	0.0182	-0.0073	-0.0462	0.0165	0.9585
11.5927	-0.58603	-2.0062	0.24709	0.71738	-0.60615	-2.7274	12.0934	761.1617	-63.0541	295.4207	58.2405	756.6122	-0.0592	0.0182	-0.0073	-0.0462	0.0165	0.9585
11.6043	-0.40243	-4.8341	0.11885	1.6935	-0.41379	-6.1927	15.8186	761.0347	-63.5212	295.4378	56.8995	750.8346	-0.0592	0.0182	-0.0073	-0.0462	0.0165	0.9585
11.6159	0.058856	-7.8877	-0.082939	2.7385	-0.024464	-9.9496	19.5169	759.1242	-64.0844	294.7252	55.6953	743.441	-0.0592	0.0182	-0.0073	-0.0462	0.0165	0.9585
11.6274	0.88445	-10.5415	-0.3682	3.6356	0.60747	-13.2383	23.0971	755.1515	-64.7401	293.1476	54.6376	734.2494	-0.0592	0.0182	-0.0073	-0.0462	0.0165	0.9585
11.639	2.1969	-11.7846	-0.74007	4.0296	1.5255	-14.8523	26.4666	748.8867	-65.4929	290.5938	53.7444	723.1069	-0.0592	0.0182	-0.0073	-0.0462	0.0165	0.9585
11.6506	4.0639	-10.0587	-1.1884	3.3816	2.7391	-12.9143	29.5151	740.2938	-66.3409	287.02	53.0353	710.0651	-0.0592	0.0182	-0.0073	-0.0462	0.0165	0.9585
